<svg width="25" height="26" viewBox="0 0 25 26" fill="none" xmlns="http://www.w3.org/2000/svg">
<path fill-rule="evenodd" clip-rule="evenodd" d="M11.768 0C18.2567 0 23.5347 5.278 23.5347 11.7667C23.5347 14.8281 22.3599 17.6203 20.4373 19.7158L24.2203 23.4908C24.5744 23.8449 24.5756 24.4176 24.2215 24.7717C24.0451 24.9505 23.8119 25.0387 23.5799 25.0387C23.3491 25.0387 23.1171 24.9505 22.9395 24.7741L19.1108 20.9561C17.0968 22.5691 14.5431 23.5347 11.768 23.5347C5.27921 23.5347 0 18.2555 0 11.7667C0 5.278 5.27921 0 11.768 0ZM11.768 1.8125C6.2785 1.8125 1.8125 6.27729 1.8125 11.7667C1.8125 17.2562 6.2785 21.7222 11.768 21.7222C17.2562 21.7222 21.7222 17.2562 21.7222 11.7667C21.7222 6.27729 17.2562 1.8125 11.768 1.8125Z" fill="#5E5E5E"/>
</svg>
